inDegrees=no
num_controls=7
num_derivatives=13
num_iterations=124
num_multipliers=7
num_parameters=0
num_slacks=7
num_states=26
objective=0.546204
objective_accelerations=0.041790
objective_balance=0.003842
objective_effort=0.040696
objective_height=0.450432
objective_ligament=0.009444
solver_duration=1485.773377
status=Solve_Succeeded
success=true
DataType=double
version=3
OpenSimVersion=4.5
endheader
time	/jointset/ground_pelvis/pelvis_tilt/value	/jointset/ground_pelvis/pelvis_tx/value	/jointset/ground_pelvis/pelvis_ty/value	/jointset/hip_r/hip_flexion_r/value	/jointset/hip_r/hip_adduction_r/value	/jointset/hip_r/hip_rotation_r/value	/jointset/back/lumbar_extension/value	/jointset/patellofemoral_r/patellar_flexion_r/value	/jointset/knee_r/knee_flexion_r/value	/jointset/knee_r/knee_adduction_r/value	/jointset/knee_r/knee_rotation_r/value	/jointset/ankle_r/ankle_angle_r/value	/jointset/subtalar_r/subtalar_angle_r/value	/jointset/ground_pelvis/pelvis_tilt/speed	/jointset/ground_pelvis/pelvis_tx/speed	/jointset/ground_pelvis/pelvis_ty/speed	/jointset/hip_r/hip_flexion_r/speed	/jointset/hip_r/hip_adduction_r/speed	/jointset/hip_r/hip_rotation_r/speed	/jointset/back/lumbar_extension/speed	/jointset/patellofemoral_r/patellar_flexion_r/speed	/jointset/knee_r/knee_flexion_r/speed	/jointset/knee_r/knee_adduction_r/speed	/jointset/knee_r/knee_rotation_r/speed	/jointset/ankle_r/ankle_angle_r/speed	/jointset/subtalar_r/subtalar_angle_r/speed	/forceset/tau_hip_flexion_r	/forceset/tau_hip_adduction_r	/forceset/tau_hip_rotation_r	/forceset/tau_knee_flexion_r	/forceset/tau_ankle_angle_r	/forceset/tau_subtalar_angle_r	/forceset/tau_lumbar_extension	lambda_cid13_p0	lambda_cid14_p0	lambda_cid14_p1	lambda_cid14_p2	lambda_cid14_p3	lambda_cid14_p4	lambda_cid14_p5	/jointset/ground_pelvis/pelvis_tilt/accel	/jointset/ground_pelvis/pelvis_tx/accel	/jointset/ground_pelvis/pelvis_ty/accel	/jointset/hip_r/hip_flexion_r/accel	/jointset/hip_r/hip_adduction_r/accel	/jointset/hip_r/hip_rotation_r/accel	/jointset/back/lumbar_extension/accel	/jointset/patellofemoral_r/patellar_flexion_r/accel	/jointset/knee_r/knee_flexion_r/accel	/jointset/knee_r/knee_adduction_r/accel	/jointset/knee_r/knee_rotation_r/accel	/jointset/ankle_r/ankle_angle_r/accel	/jointset/subtalar_r/subtalar_angle_r/accel	gamma_cid13_p0	gamma_cid14_p0	gamma_cid14_p1	gamma_cid14_p2	gamma_cid14_p3	gamma_cid14_p4	gamma_cid14_p5
1.5	-0.2244542820847791	0.006310267688276659	0.8499506230862007	0.8668537419353555	-0.2245950869757245	-0.1439330442516598	-0.3035981694157284	0.6488007003543734	0.6488007003542798	0.03546478979618462	0.1745246297038059	0.1740148223357884	0.03875275320744181	0.5470845772551607	0.2336384090541817	0.3976443096957991	-1.963649401685841	0.01428845674064382	-0.2903838770889026	0.6934407383448171	-1.738351240375813	-1.738351240375773	0.2728084863041407	4.43325107205783e-05	-0.4016113837707007	-0.08610846580786818	-0.1412123762523051	-0.02627166255824548	0.007594119381173099	-0.2962696351887783	0.1088142594764598	-0.006261111026247798	0.1743314862450876	-34.15421613067863	-6.591864302286548	0.6086218704018714	-4.756596283315085	-2.865612452902116	-659.447866124152	62.12832128769455	0.2753637599214621	0.5391999803581478	-0.4408881813118623	-1.184871702966563	-0.0006736187370553851	-0.4862106485795658	1.662222768838156	-1.101403352316197	-1.101403352316229	0.4735669934826194	-0.003875278206166084	-0.314004268962459	-0.04796025263070856	1.21289540529033e-07	1.738450947020389e-07	-4.040609496374363e-07	1.186903014702527e-06	-5.202132717964065e-08	2.228722145095273e-07	-4.443444909013885e-07
1.51	-0.2189701892137382	0.00867338669032775	0.853904187750642	0.8471601029573878	-0.2244531188029552	-0.1468602003169392	-0.2965817413035973	0.6313644270457469	0.6313644270457389	0.03821860007481775	0.1745250269917788	0.1699833948339485	0.03788829223270135	0.549656336700635	0.2389585581538987	0.3929846604036099	-1.974816388449928	0.01410472216153797	-0.2950368898796726	0.7097581917171113	-1.748657016899896	-1.748657016899751	0.2779330307232093	3.282369560350026e-05	-0.404605851186196	-0.08676504012308038	-0.1334817760222099	-0.02794741058786468	0.006941871929796711	-0.2935851242303358	0.1111562147456371	-0.006783964079182785	0.1676672024932999	-35.05448336755011	-5.642420771005686	0.6389491756622402	-4.865559450118374	-3.207594270767195	-655.3917974274121	62.29151079083712	0.2364522552186615	0.5243871648015297	-0.4910465545825984	-1.043286639649681	-0.02715568979198599	-0.4530671294746874	1.60350276684114	-0.9582307589423286	-0.9582307589263686	0.5288097876312328	0.00010640697729397	-0.2819193820201115	-0.07163207328879566	1.290974715299876e-07	1.817813811674745e-07	-4.629106571879789e-07	1.237038764876917e-06	-5.144479019620889e-08	2.446274208773943e-07	-4.990105076648564e-07
1.52	-0.2134627047045691	0.0110889001413807	0.8578086472718796	0.827362659216476	-0.2243129744384358	-0.1498335306171563	-0.28940473942866	0.613832482780582	0.6138324827806596	0.04102303812194401	0.1745252882096303	0.1659240723771183	0.0370178403043443	0.5517629048804337	0.2441172988545535	0.3878232810550128	-1.984410354274816	0.01392369509064688	-0.2996187240764019	0.7255554909060448	-1.757485431683496	-1.757485431683244	0.2829340400027674	1.711848615735009e-05	-0.4071903747687736	-0.08730665653118537	-0.1257511757921175	-0.02962315861748449	0.006289624478426819	-0.2909006132718938	0.1134981700148142	-0.007306817132118841	0.1610029187415099	-35.92254843950096	-4.700897254425167	0.6707967179825853	-4.97808629971557	-3.549651498492494	-651.4647388182852	62.53213779075611	0.1823255067863556	0.5069183005456562	-0.5412341925934271	-0.870267515127004	-0.0001321170941007057	-0.4719749297714306	1.558191932166022	-0.8059310042194452	-0.8059310042194662	0.4488599655805022	-0.004714557071986945	-0.2320155023789847	-0.02496867120927416	1.378067279145418e-07	1.869727598489132e-07	-5.475261726295714e-07	1.269015168163513e-06	-4.654159710324277e-08	2.647148618185363e-07	-5.597593447210706e-07
1.53	-0.2079365117232723	0.01355509475850133	0.8616590232961957	0.8074772698394622	-0.224174710612087	-0.1528524514262	-0.2820726713196748	0.5962197241532979	0.5962197241533536	0.04387692884661758	0.1745255457755671	0.1618408991404919	0.03614243691904877	0.5533929929626203	0.2490840526343986	0.3821713945813442	-1.992383508788978	0.01372787718591786	-0.3041433615191833	0.7407410268018816	-1.764804575020257	-1.764804575020029	0.2878252731689445	2.697213372536586e-05	-0.4093771836573639	-0.08775718542152257	-0.1177951683801963	-0.03154863801650701	0.005661723601269616	-0.2883727979990772	0.1159631160898767	-0.007939158021237973	0.1541120416721368	-36.75385597427255	-3.729856600501811	0.6574870971462385	-5.080243494672692	-3.826352472871781	-647.5528236668852	62.74853473273628	0.1409648026813	0.4859117352552796	-0.5891866916856001	-0.7182125304780852	-0.02937109334891647	-0.4391620680028048	1.481168804987713	-0.6556787152013001	-0.655678715204783	0.5063940356274798	0.002968873931462871	-0.2019363239547676	-0.05253176852020681	1.474736425191705e-07	1.892476740098553e-07	-6.595178589554041e-07	1.281697265381828e-06	-3.704133189389643e-08	2.830303019937831e-07	-6.269711783383276e-07
1.54	-0.2023964949924023	0.01606982847713077	0.8654504762923887	0.7875206742951245	-0.224038417858022	-0.1559159093929665	-0.274592260974392	0.5785416195492873	0.5785416195493195	0.04677915971165178	0.1745257285876321	0.1577378732666085	0.03526304089073504	0.55452765479466	0.2538251191563142	0.3760386754303932	-1.99865158773983	0.01352948063372341	-0.3085261556208173	0.7552239381655219	-1.77055462702889	-1.770554627028685	0.2926020680747671	2.167711704281919e-06	-0.4111609022201833	-0.08810518513483026	-0.1098391609682767	-0.03347411741552862	0.005033822724110616	-0.2858449827262607	0.1184280621649394	-0.008571498910356138	0.1472211646027621	-37.54382707781173	-2.767175928526265	0.6457636785253394	-5.18613820891983	-4.102284623496826	-643.7776896776556	63.04724762645301	0.08324025675700737	0.4617808489597204	-0.6374007280499406	-0.5292524024648835	-0.0006478465871862943	-0.4436062615419414	1.417667025726751	-0.4921127385936414	-0.4921127385936253	0.425972313509605	-0.01164617098981032	-0.1513974372248463	-0.0044628358033863	1.584166632693215e-07	1.903663395579829e-07	-7.921354455209093e-07	1.286180928719834e-06	-2.497454868804677e-08	3.017614104270521e-07	-6.986807588589508e-07
